<?xml version="1.0" encoding="utf-8"?>
<!-- Generator: Adobe Illustrator 16.0.0, SVG Export Plug-In . SVG Version: 6.00 Build 0)  -->
<!DOCTYPE svg PUBLIC "-//W3C//DTD SVG 1.1//EN" "http://www.w3.org/Graphics/SVG/1.1/DTD/svg11.dtd">
<svg version="1.1" id="Layer_1" xmlns="http://www.w3.org/2000/svg" xmlns:xlink="http://www.w3.org/1999/xlink" x="0px" y="0px"
	 width="150px" height="29.002px" viewBox="0 0 150 29.002" enable-background="new 0 0 150 29.002" xml:space="preserve">
<g>
	<g>
		<path fill="#FFFFFF" d="M14.016,18.722c-0.456,0-0.848,0.226-1.076,0.419c-1.076,0.902-2.282,1.515-3.846,1.515
			c-3.031,0-5.149-2.417-5.149-5.446v-0.064c0-2.965,2.118-5.414,4.987-5.414c1.564,0,2.672,0.612,3.683,1.45
			c0.261,0.193,0.685,0.387,1.174,0.387c1.01,0,1.825-0.773,1.825-1.772c0-0.645-0.358-1.127-0.619-1.353
			c-1.467-1.257-3.325-2.127-6.03-2.127C3.781,6.316,0,10.376,0,15.21v0.064c0,4.833,3.781,8.797,8.898,8.797
			c2.868,0,4.726-0.967,6.258-2.417c0.359-0.29,0.554-0.709,0.554-1.225C15.71,19.496,14.961,18.722,14.016,18.722z M20.111,0
			c-1.108,0-1.956,0.87-1.956,1.933v19.979c0,1.096,0.88,1.934,1.956,1.934c1.108,0,1.988-0.838,1.988-1.934V1.933
			C22.099,0.87,21.219,0,20.111,0z M26.989,6.477c-1.108,0-1.956,0.87-1.956,1.966v13.47c0,1.096,0.88,1.934,1.956,1.934
			c1.108,0,1.988-0.838,1.988-1.934V8.443C28.977,7.347,28.097,6.477,26.989,6.477z M26.989,0.193c-1.271,0-2.25,0.786-2.25,2.015
			v0.205c0,1.229,0.978,2.049,2.25,2.049c1.271,0,2.249-0.82,2.249-2.049V2.208C29.237,0.979,28.259,0.193,26.989,0.193z
			 M41.493,6.316c-2.803,0-4.596,1.418-5.867,3.19V8.443c0-1.096-0.88-1.966-1.988-1.966s-1.956,0.87-1.956,1.966v18.626
			c0,1.096,0.88,1.934,1.956,1.934c1.108,0,1.988-0.838,1.988-1.934v-6.026c1.206,1.579,2.999,2.997,5.867,2.997
			c4.074,0,7.986-3.19,7.986-8.83v-0.064C49.479,9.474,45.534,6.316,41.493,6.316z M45.469,15.21c0,3.351-2.216,5.446-4.922,5.446
			c-2.673,0-5.02-2.191-5.02-5.446v-0.064c0-3.255,2.347-5.446,5.02-5.446s4.922,2.159,4.922,5.446V15.21z M65.384,19.496
			c-0.326,0-0.554,0.161-0.717,0.322c-1.239,1.16-2.771,2.03-4.694,2.03c-3.52,0-6.193-2.868-6.193-6.477v-0.064
			c0-3.577,2.607-6.445,6.03-6.445c2.021,0,3.39,0.902,4.596,1.998c0.195,0.161,0.489,0.29,0.814,0.29
			c0.652,0,1.206-0.516,1.206-1.192c0-0.386-0.195-0.709-0.391-0.87c-1.499-1.354-3.39-2.417-6.193-2.417
			c-4.921,0-8.637,3.996-8.637,8.701v0.064c0,4.672,3.716,8.636,8.637,8.636c2.836,0,4.759-1.096,6.356-2.675
			c0.196-0.193,0.326-0.483,0.326-0.773C66.525,20.043,66.004,19.496,65.384,19.496z M77.51,6.67c-2.901,0-4.661,1.45-5.77,3.254
			V1.257C71.74,0.58,71.187,0,70.469,0c-0.685,0-1.238,0.58-1.238,1.257v21.333c0,0.708,0.554,1.257,1.271,1.257
			c0.717,0,1.238-0.549,1.238-1.257v-8.443c0-3.126,2.151-5.221,5.053-5.221c2.966,0,4.66,1.934,4.66,5.027v8.636
			c0,0.708,0.555,1.257,1.271,1.257c0.685,0,1.238-0.549,1.238-1.257v-9.249C83.963,9.377,81.584,6.67,77.51,6.67z M94.361,6.799
			c-2.151,0-3.846,0.419-5.509,1.128c-0.325,0.129-0.685,0.516-0.685,1.031c0,0.58,0.521,1.063,1.108,1.063
			c0.13,0,0.294-0.032,0.456-0.097c1.238-0.548,2.673-0.934,4.367-0.934c3.162,0,5.021,1.546,5.021,4.543v0.58
			c-1.499-0.419-3.032-0.709-5.183-0.709c-4.27,0-7.203,1.869-7.203,5.381v0.064c0,3.416,3.162,5.188,6.291,5.188
			c2.966,0,4.922-1.354,6.095-2.868v1.515c0,0.645,0.489,1.16,1.206,1.16c0.684,0,1.205-0.516,1.205-1.225v-9.12
			c0-2.127-0.586-3.738-1.727-4.866C98.566,7.412,96.74,6.799,94.361,6.799z M99.152,17.562c0,2.643-2.542,4.512-5.639,4.512
			c-2.281,0-4.237-1.225-4.237-3.319V18.69c0-2.095,1.761-3.448,4.922-3.448c2.054,0,3.716,0.354,4.954,0.71V17.562z M123.729,6.67
			c-2.934,0-4.727,1.482-5.932,3.319c-0.913-1.869-2.673-3.319-5.411-3.319c-2.835,0-4.335,1.515-5.442,3.158V8.121
			c0-0.709-0.555-1.257-1.271-1.257c-0.686,0-1.238,0.58-1.238,1.257v14.469c0,0.708,0.553,1.257,1.271,1.257
			c0.717,0,1.239-0.549,1.239-1.257v-8.411c0-3.062,2.02-5.253,4.693-5.253c2.672,0,4.334,1.837,4.334,4.963v8.701
			c0,0.708,0.555,1.257,1.239,1.257c0.717,0,1.271-0.549,1.271-1.257v-8.507c0-3.287,2.085-5.156,4.628-5.156
			c2.738,0,4.367,1.805,4.367,5.027v8.636c0,0.708,0.555,1.257,1.271,1.257c0.685,0,1.238-0.549,1.238-1.257v-9.216
			C129.986,9.248,127.607,6.67,123.729,6.67z M141.949,6.67c-3.097,0-5.085,1.708-6.454,3.706V8.121
			c0-0.709-0.554-1.257-1.271-1.257c-0.686,0-1.239,0.548-1.239,1.257v19.624c0,0.709,0.554,1.258,1.271,1.258
			c0.717,0,1.238-0.549,1.238-1.258v-7.25c1.304,1.869,3.325,3.545,6.454,3.545c4.074,0,8.051-3.223,8.051-8.668v-0.064
			C150,9.828,145.99,6.67,141.949,6.67z M147.425,15.403c0,4.028-2.673,6.413-5.933,6.413c-3.129,0-6.095-2.578-6.095-6.445v-0.064
			c0-3.803,2.966-6.413,6.095-6.413c3.195,0,5.933,2.514,5.933,6.445V15.403z"/>
	</g>
</g>
</svg>
